<?xml version="1.0" encoding="UTF-8" standalone="no"?>
<!DOCTYPE svg PUBLIC "-//W3C//DTD SVG 1.1//EN" "http://www.w3.org/Graphics/SVG/1.1/DTD/svg11.dtd">
<svg width="100%" height="100%" viewBox="0 0 190 66" version="1.1" xmlns="http://www.w3.org/2000/svg" xmlns:xlink="http://www.w3.org/1999/xlink" xml:space="preserve" xmlns:serif="http://www.serif.com/" style="fill-rule:evenodd;clip-rule:evenodd;stroke-linejoin:round;stroke-miterlimit:2;">
    <g transform="matrix(1,0,0,1,-181,-142)">
        <g id="play">
            <g transform="matrix(1,0,0,1,13.6493,57.6441)">
                <g transform="matrix(0.465553,0,0,0.465553,106.234,67.0219)">
                    <rect x="480" y="160" width="19" height="19" style="fill:white;"/>
                </g>
                <g transform="matrix(0.465553,0,0,0.465553,115.545,66.9122)">
                    <rect x="460" y="140" width="19" height="19" style="fill:white;"/>
                </g>
                <g transform="matrix(0.465553,0,0,0.465553,124.856,66.8024)">
                    <rect x="440" y="120" width="19" height="19" style="fill:white;"/>
                </g>
                <g transform="matrix(-0.465553,0,0,0.465553,543.388,66.5829)">
                    <rect x="440" y="80" width="19" height="19" style="fill:white;"/>
                </g>
                <g transform="matrix(0.465553,0,0,0.465553,124.39,66.4698)">
                    <rect x="460" y="60" width="19" height="19" style="fill:white;"/>
                </g>
                <g transform="matrix(-0.465553,0,0,0.465553,543.854,66.4698)">
                    <rect x="460" y="60" width="19" height="19" style="fill:white;"/>
                </g>
                <g transform="matrix(0.465553,0,0,0.465553,124.39,66.4698)">
                    <rect x="480" y="40" width="19" height="19" style="fill:white;"/>
                </g>
                <g transform="matrix(-0.465553,0,0,0.465553,544.319,66.4698)">
                    <rect x="480" y="40" width="19" height="19" style="fill:white;"/>
                </g>
                <g transform="matrix(0.465553,0,0,0.465553,162.1,94.6258)">
                    <rect x="360" y="40" width="19" height="19" style="fill:white;"/>
                </g>
            </g>
            <g transform="matrix(1,0,0,1,13.4654,57.6441)">
                <g transform="matrix(0.465553,0,0,0.465553,108.681,67.0219)">
                    <rect x="400" y="160" width="19" height="19" style="fill:white;"/>
                </g>
                <g transform="matrix(0.465553,0,0,0.465553,118.033,67.0219)">
                    <rect x="300" y="160" width="19" height="19" style="fill:white;"/>
                </g>
                <g transform="matrix(0.465553,0,0,0.465553,108.681,67.0219)">
                    <rect x="400" y="140" width="19" height="19" style="fill:white;"/>
                </g>
                <g transform="matrix(0.465553,0,0,0.465553,118.033,67.0219)">
                    <rect x="300" y="140" width="19" height="19" style="fill:white;"/>
                </g>
                <g transform="matrix(0.465553,0,0,0.465553,108.681,67.0219)">
                    <rect x="400" y="120" width="19" height="19" style="fill:white;"/>
                </g>
                <g transform="matrix(0.465553,0,0,0.465553,118.033,67.0219)">
                    <rect x="300" y="120" width="19" height="19" style="fill:white;"/>
                </g>
                <g transform="matrix(0.465553,0,0,0.465553,164.547,67.0219)">
                    <rect x="260" y="120" width="19" height="19" style="fill:white;"/>
                </g>
                <g transform="matrix(0.465553,0,0,0.465553,155.277,76.333)">
                    <rect x="260" y="100" width="19" height="19" style="fill:white;"/>
                </g>
                <g transform="matrix(0.465553,0,0,0.465553,118.033,67.0219)">
                    <rect x="300" y="100" width="19" height="19" style="fill:white;"/>
                </g>
                <g transform="matrix(0.465553,0,0,0.465553,108.681,67.0219)">
                    <rect x="400" y="100" width="19" height="19" style="fill:white;"/>
                </g>
                <g transform="matrix(0.465553,0,0,0.465553,108.681,67.0219)">
                    <rect x="400" y="80" width="19" height="19" style="fill:white;"/>
                </g>
                <g transform="matrix(0.465553,0,0,0.465553,118.033,67.0219)">
                    <rect x="300" y="80" width="19" height="19" style="fill:white;"/>
                </g>
                <g transform="matrix(0.465553,0,0,0.465553,145.966,85.6441)">
                    <rect x="260" y="80" width="19" height="19" style="fill:white;"/>
                </g>
                <g transform="matrix(0.465553,0,0,0.465553,108.681,67.0219)">
                    <rect x="380" y="60" width="19" height="19" style="fill:white;"/>
                </g>
                <g transform="matrix(0.465553,0,0,0.465553,118.033,67.0219)">
                    <rect x="320" y="60" width="19" height="19" style="fill:white;"/>
                </g>
                <g transform="matrix(0.465553,0,0,0.465553,118.033,67.0219)">
                    <rect x="340" y="40" width="19" height="19" style="fill:white;"/>
                </g>
            </g>
            <g transform="matrix(1,0,0,1,12.317,57.6441)">
                <g transform="matrix(0.465553,0,0,0.465553,130.135,67.0219)">
                    <rect x="220" y="160" width="19" height="19" style="fill:white;"/>
                </g>
                <g transform="matrix(0.465553,0,0,0.465553,130.445,67.0219)">
                    <rect x="200" y="160" width="19" height="19" style="fill:white;"/>
                </g>
                <g transform="matrix(0.465553,0,0,0.465553,130.756,67.0219)">
                    <rect x="180" y="160" width="19" height="19" style="fill:white;"/>
                </g>
                <g transform="matrix(0.465553,0,0,0.465553,129.825,76.333)">
                    <rect x="240" y="140" width="19" height="19" style="fill:white;"/>
                </g>
                <g transform="matrix(0.465553,0,0,0.465553,140.067,67.0735)">
                    <rect x="160" y="140" width="19" height="19" style="fill:white;"/>
                </g>
                <g transform="matrix(0.465553,0,0,0.465553,149.378,67.1252)">
                    <rect x="140" y="120" width="19" height="19" style="fill:white;"/>
                </g>
                <g transform="matrix(0.465553,0,0,0.465553,149.378,67.1768)">
                    <rect x="140" y="100" width="19" height="19" style="fill:white;"/>
                </g>
                <g transform="matrix(0.465553,0,0,0.465553,149.378,67.2284)">
                    <rect x="140" y="80" width="19" height="19" style="fill:white;"/>
                </g>
                <g transform="matrix(0.465553,0,0,0.465553,140.067,67.28)">
                    <rect x="160" y="60" width="19" height="19" style="fill:white;"/>
                </g>
                <g transform="matrix(0.465553,0,0,0.465553,130.756,67.3317)">
                    <rect x="180" y="40" width="19" height="19" style="fill:white;"/>
                </g>
            </g>
            <g transform="matrix(1,0,0,1,13.6493,57.6441)">
                <g transform="matrix(0.465553,0,0,0.465553,149.378,67.0219)">
                    <rect x="40" y="160" width="19" height="19" style="fill:white;"/>
                </g>
                <g transform="matrix(0.465553,0,0,0.465553,149.378,67.0219)">
                    <rect x="40" y="140" width="19" height="19" style="fill:white;"/>
                </g>
                <g transform="matrix(0.465553,0,0,0.465553,149.378,67.0219)">
                    <rect x="40" y="120" width="19" height="19" style="fill:white;"/>
                </g>
                <g transform="matrix(0.465553,0,0,0.465553,149.378,67.0219)">
                    <rect x="40" y="100" width="19" height="19" style="fill:white;"/>
                </g>
                <g transform="matrix(0.465553,0,0,0.465553,149.378,67.0219)">
                    <rect x="60" y="100" width="19" height="19" style="fill:white;"/>
                </g>
                <g transform="matrix(0.465553,0,0,0.465553,149.378,67.0219)">
                    <rect x="80" y="100" width="19" height="19" style="fill:white;"/>
                </g>
                <g transform="matrix(0.465553,0,0,0.465553,149.378,67.0219)">
                    <rect x="100" y="80" width="19" height="19" style="fill:white;"/>
                </g>
                <g transform="matrix(0.465553,0,0,0.465553,149.378,67.0219)">
                    <rect x="40" y="80" width="19" height="19" style="fill:white;"/>
                </g>
                <g transform="matrix(0.465553,0,0,0.465553,149.378,67.0219)">
                    <rect x="100" y="60" width="19" height="19" style="fill:white;"/>
                </g>
                <g transform="matrix(0.465553,0,0,0.465553,149.378,67.0219)">
                    <rect x="40" y="60" width="19" height="19" style="fill:white;"/>
                </g>
                <g transform="matrix(0.465553,0,0,0.465553,149.378,67.0219)">
                    <rect x="80" y="40" width="19" height="19" style="fill:white;"/>
                </g>
                <g transform="matrix(0.465553,0,0,0.465553,149.378,67.0219)">
                    <rect x="60" y="40" width="19" height="19" style="fill:white;"/>
                </g>
                <g transform="matrix(0.465553,0,0,0.465553,149.378,67.0219)">
                    <rect x="40" y="40" width="19" height="19" style="fill:white;"/>
                </g>
            </g>
        </g>
    </g>
</svg>
