<?xml version="1.0" encoding="UTF-8" standalone="no"?>
<!DOCTYPE svg PUBLIC "-//W3C//DTD SVG 1.1//EN" "http://www.w3.org/Graphics/SVG/1.1/DTD/svg11.dtd">
<svg width="100%" height="100%" viewBox="0 0 126 56" version="1.1" xmlns="http://www.w3.org/2000/svg" xmlns:xlink="http://www.w3.org/1999/xlink" xml:space="preserve" xmlns:serif="http://www.serif.com/" style="fill-rule:evenodd;clip-rule:evenodd;stroke-linejoin:round;stroke-miterlimit:2;">
    <g transform="matrix(0.723543,0,0,0.723543,-144.264,-66.4118)">
        <g>
            <g transform="matrix(0.296289,0,0,0.296289,203.644,103.335)">
                <path d="M40,40L40,59L59,59L59,40L40,40M60,40L60,59L79,59L79,40L60,40M80,40L80,59L99,59L99,40L80,40M180,40L180,59L199,59L199,40L180,40M200,40L200,59L219,59L219,40L200,40M220,40L220,59L239,59L239,40L220,40M340,40L340,59L359,59L359,40L340,40M360,40L360,59L379,59L379,40L360,40M480,40L480,59L499,59L499,40L480,40M500,40L500,59L519,59L519,40L500,40M40,60L40,79L59,79L59,60L40,60M100,60L100,79L119,79L119,60L100,60M160,60L160,79L179,79L179,60L160,60M240,60L240,79L259,79L259,60L240,60M320,60L320,79L339,79L339,60L320,60M380,60L380,79L399,79L399,60L380,60M460,60L460,79L479,79L479,60L460,60M40,80L40,99L59,99L59,80L40,80M100,80L100,99L119,99L119,80L100,80M140,80L140,99L159,99L159,80L140,80M260,80L260,99L279,99L279,80L260,80M300,80L300,99L319,99L319,80L300,80M400,80L400,99L419,99L419,80L400,80M440,80L440,99L459,99L459,80L440,80M40,100L40,119L59,119L59,100L40,100M60,100L60,119L79,119L79,100L60,100M80,100L80,119L99,119L99,100L80,100M140,100L140,119L159,119L159,100L140,100M260,100L260,119L279,119L279,100L260,100M300,100L300,119L319,119L319,100L300,100M400,100L400,119L419,119L419,100L400,100M440,100L440,119L459,119L459,100L440,100M480,100L480,119L499,119L499,100L480,100M500,100L500,119L519,119L519,100L500,100M40,120L40,139L59,139L59,120L40,120M140,120L140,139L159,139L159,120L140,120M260,120L260,139L279,139L279,120L260,120M300,120L300,139L319,139L319,120L300,120M400,120L400,139L419,139L419,120L400,120M440,120L440,139L459,139L459,120L440,120M500,120L500,139L519,139L519,120L500,120M40,140L40,159L59,159L59,140L40,140M160,140L160,159L179,159L179,140L160,140M240,140L240,159L259,159L259,140L240,140M300,140L300,159L319,159L319,140L300,140M400,140L400,159L419,159L419,140L400,140M460,140L460,159L479,159L479,140L460,140M500,140L500,159L519,159L519,140L500,140M40,160L40,179L59,179L59,160L40,160M180,160L180,179L199,179L199,160L180,160M200,160L200,179L219,179L219,160L200,160M220,160L220,179L239,179L239,160L220,160M300,160L300,179L319,179L319,160L300,160M400,160L400,179L419,179L419,160L400,160M480,160L480,179L499,179L499,160L480,160M500,160L500,179L519,179L519,160L500,160Z" style="fill-rule:nonzero;"/>
            </g>
            <g transform="matrix(0.20434,-1.63469e-23,1.63469e-23,0.20434,215.662,98.7832)">
                <g transform="matrix(38.1407,0,0,38.1407,118.466,53.9065)">
                    <path d="M0.659,-0.667L0.267,-0.667C0.129,-0.667 0.041,-0.634 0.041,-0.511C0.041,-0.458 0.062,-0.407 0.088,-0.377L0.241,-0.377C0.205,-0.413 0.179,-0.461 0.179,-0.492C0.179,-0.534 0.206,-0.537 0.25,-0.537L0.431,-0.537L0.391,-0.226C0.379,-0.136 0.371,-0.11 0.304,-0.11C0.27,-0.11 0.23,-0.117 0.189,-0.133L0.172,-0.005C0.214,0.011 0.264,0.02 0.314,0.02C0.445,0.02 0.505,-0.034 0.53,-0.226L0.57,-0.537L0.642,-0.537L0.659,-0.667Z" style="fill:rgb(212,31,38);fill-rule:nonzero;"/>
                </g>
                <g transform="matrix(38.1407,0,0,38.1407,141.35,53.9065)">
                    <path d="M0.391,-0.111C0.368,-0.111 0.36,-0.123 0.36,-0.158C0.36,-0.211 0.378,-0.318 0.429,-0.436L0.428,-0.437C0.359,-0.427 0.276,-0.425 0.224,-0.425L0.219,-0.425C0.221,-0.448 0.221,-0.467 0.221,-0.482L0.115,-0.482C0.089,-0.448 0.073,-0.404 0.073,-0.368C0.073,-0.343 0.081,-0.322 0.099,-0.309C0.08,-0.232 0.052,-0.168 0.025,-0.119L0.135,-0.119C0.16,-0.164 0.183,-0.232 0.199,-0.301L0.208,-0.301C0.226,-0.301 0.248,-0.302 0.271,-0.305L0.272,-0.304C0.247,-0.244 0.23,-0.169 0.23,-0.114C0.23,-0.037 0.263,0.013 0.34,0.013C0.372,0.013 0.405,0.004 0.433,-0.014L0.448,-0.13C0.426,-0.118 0.408,-0.111 0.391,-0.111Z" style="fill:rgb(212,31,38);fill-rule:nonzero;"/>
                </g>
                <g transform="matrix(38.1407,0,0,38.1407,159.047,53.9065)">
                    <path d="M0.483,-0.111C0.464,-0.111 0.458,-0.119 0.458,-0.134C0.458,-0.146 0.461,-0.174 0.465,-0.203L0.496,-0.437L0.368,-0.437L0.366,-0.424C0.364,-0.409 0.362,-0.39 0.362,-0.379L0.361,-0.379C0.348,-0.426 0.316,-0.45 0.265,-0.45C0.149,-0.45 0.033,-0.327 0.033,-0.159C0.033,-0.045 0.105,0.013 0.178,0.013C0.249,0.013 0.304,-0.025 0.336,-0.087C0.341,-0.019 0.38,0.013 0.436,0.013C0.467,0.013 0.496,0.003 0.52,-0.016L0.535,-0.127C0.516,-0.117 0.499,-0.111 0.483,-0.111ZM0.215,-0.111C0.185,-0.111 0.166,-0.131 0.166,-0.169C0.166,-0.245 0.22,-0.322 0.282,-0.322C0.313,-0.322 0.339,-0.302 0.351,-0.276C0.332,-0.197 0.277,-0.111 0.215,-0.111Z" style="fill:rgb(212,31,38);fill-rule:nonzero;"/>
                </g>
                <g transform="matrix(38.1407,0,0,38.1407,180.33,53.9065)">
                    <path d="M0.421,0.013C0.454,0.013 0.487,0.006 0.515,-0.013L0.53,-0.131C0.508,-0.118 0.485,-0.111 0.469,-0.111C0.451,-0.111 0.444,-0.119 0.444,-0.14C0.444,-0.157 0.449,-0.186 0.456,-0.223C0.466,-0.275 0.474,-0.319 0.474,-0.352C0.474,-0.419 0.437,-0.45 0.379,-0.45C0.318,-0.45 0.25,-0.415 0.195,-0.305L0.194,-0.305C0.199,-0.33 0.204,-0.358 0.208,-0.387L0.215,-0.437L0.087,-0.437L0.029,-0L0.155,-0C0.167,-0.074 0.197,-0.159 0.23,-0.215C0.263,-0.271 0.296,-0.301 0.319,-0.301C0.33,-0.301 0.337,-0.294 0.337,-0.279C0.337,-0.268 0.333,-0.248 0.328,-0.223C0.318,-0.174 0.312,-0.131 0.312,-0.099C0.312,-0.034 0.337,0.013 0.421,0.013Z" style="fill:rgb(212,31,38);fill-rule:nonzero;"/>
                </g>
                <g transform="matrix(38.1407,0,0,38.1407,201.231,53.9065)">
                    <path d="M0.31,-0.11C0.363,-0.135 0.385,-0.188 0.385,-0.24C0.385,-0.275 0.375,-0.313 0.351,-0.356C0.333,-0.388 0.323,-0.417 0.323,-0.449C0.323,-0.459 0.324,-0.471 0.327,-0.482L0.182,-0.482C0.155,-0.395 0.068,-0.244 0.022,-0.188L0.139,-0.188C0.169,-0.225 0.202,-0.286 0.225,-0.349L0.234,-0.321C0.246,-0.287 0.252,-0.259 0.252,-0.231C0.252,-0.16 0.214,-0.113 0.142,-0.113C0.121,-0.113 0.093,-0.117 0.063,-0.124L0.049,-0.014C0.105,0.005 0.164,0.013 0.222,0.013C0.278,0.013 0.344,0.005 0.414,-0.019L0.429,-0.135C0.4,-0.124 0.358,-0.114 0.31,-0.108L0.31,-0.11Z" style="fill:rgb(212,31,38);fill-rule:nonzero;"/>
                </g>
                <g transform="matrix(38.1407,0,0,38.1407,218.242,53.9065)">
                    <path d="M0.251,0.013C0.31,0.013 0.376,-0.001 0.435,-0.039L0.452,-0.172C0.366,-0.121 0.307,-0.108 0.262,-0.108C0.208,-0.108 0.172,-0.128 0.172,-0.189C0.172,-0.263 0.222,-0.331 0.271,-0.331C0.293,-0.331 0.302,-0.32 0.302,-0.294C0.302,-0.282 0.3,-0.269 0.297,-0.256L0.426,-0.256C0.433,-0.275 0.434,-0.296 0.434,-0.31C0.434,-0.392 0.383,-0.451 0.286,-0.451C0.147,-0.451 0.036,-0.331 0.036,-0.184C0.036,-0.061 0.117,0.013 0.251,0.013Z" style="fill:rgb(212,31,38);fill-rule:nonzero;"/>
                </g>
                <g transform="matrix(38.1407,0,0,38.1407,236.511,53.9065)">
                    <path d="M0.253,-0.107C0.215,-0.107 0.182,-0.116 0.174,-0.15C0.349,-0.159 0.424,-0.222 0.424,-0.314C0.424,-0.391 0.37,-0.45 0.275,-0.45C0.141,-0.45 0.037,-0.333 0.037,-0.19C0.037,-0.062 0.12,0.013 0.246,0.013C0.302,0.013 0.377,-0.002 0.432,-0.041L0.45,-0.177C0.385,-0.132 0.315,-0.107 0.253,-0.107ZM0.261,-0.34C0.286,-0.34 0.3,-0.323 0.3,-0.302C0.3,-0.26 0.245,-0.238 0.172,-0.233C0.175,-0.288 0.217,-0.34 0.261,-0.34Z" style="fill:rgb(212,31,38);fill-rule:nonzero;"/>
                </g>
                <g transform="matrix(38.1407,0,0,38.1407,254.628,53.9065)">
                    <path d="M0.421,0.013C0.454,0.013 0.487,0.006 0.515,-0.013L0.53,-0.131C0.508,-0.118 0.485,-0.111 0.469,-0.111C0.451,-0.111 0.444,-0.119 0.444,-0.14C0.444,-0.157 0.449,-0.186 0.456,-0.223C0.466,-0.275 0.474,-0.319 0.474,-0.352C0.474,-0.419 0.437,-0.45 0.379,-0.45C0.318,-0.45 0.25,-0.415 0.195,-0.305L0.194,-0.305C0.199,-0.33 0.204,-0.358 0.208,-0.387L0.215,-0.437L0.087,-0.437L0.029,-0L0.155,-0C0.167,-0.074 0.197,-0.159 0.23,-0.215C0.263,-0.271 0.296,-0.301 0.319,-0.301C0.33,-0.301 0.337,-0.294 0.337,-0.279C0.337,-0.268 0.333,-0.248 0.328,-0.223C0.318,-0.174 0.312,-0.131 0.312,-0.099C0.312,-0.034 0.337,0.013 0.421,0.013Z" style="fill:rgb(212,31,38);fill-rule:nonzero;"/>
                </g>
                <g transform="matrix(38.1407,0,0,38.1407,275.529,53.9065)">
                    <path d="M0.483,-0.111C0.464,-0.111 0.458,-0.119 0.458,-0.134C0.458,-0.146 0.461,-0.174 0.465,-0.203L0.526,-0.667L0.398,-0.667L0.366,-0.424C0.364,-0.409 0.362,-0.39 0.362,-0.379L0.361,-0.379C0.348,-0.426 0.316,-0.45 0.265,-0.45C0.149,-0.45 0.033,-0.327 0.033,-0.159C0.033,-0.045 0.105,0.013 0.178,0.013C0.249,0.013 0.304,-0.025 0.336,-0.087C0.341,-0.019 0.38,0.013 0.436,0.013C0.467,0.013 0.496,0.003 0.52,-0.016L0.535,-0.127C0.516,-0.117 0.499,-0.111 0.483,-0.111ZM0.215,-0.111C0.185,-0.111 0.166,-0.131 0.166,-0.169C0.166,-0.245 0.22,-0.322 0.282,-0.322C0.313,-0.322 0.339,-0.302 0.351,-0.276C0.332,-0.197 0.277,-0.111 0.215,-0.111Z" style="fill:rgb(212,31,38);fill-rule:nonzero;"/>
                </g>
                <g transform="matrix(38.1407,0,0,38.1407,296.812,53.9065)">
                    <path d="M0.483,-0.111C0.464,-0.111 0.458,-0.119 0.458,-0.134C0.458,-0.146 0.461,-0.174 0.465,-0.203L0.496,-0.437L0.368,-0.437L0.366,-0.424C0.364,-0.409 0.362,-0.39 0.362,-0.379L0.361,-0.379C0.348,-0.426 0.316,-0.45 0.265,-0.45C0.149,-0.45 0.033,-0.327 0.033,-0.159C0.033,-0.045 0.105,0.013 0.178,0.013C0.249,0.013 0.304,-0.025 0.336,-0.087C0.341,-0.019 0.38,0.013 0.436,0.013C0.467,0.013 0.496,0.003 0.52,-0.016L0.535,-0.127C0.516,-0.117 0.499,-0.111 0.483,-0.111ZM0.215,-0.111C0.185,-0.111 0.166,-0.131 0.166,-0.169C0.166,-0.245 0.22,-0.322 0.282,-0.322C0.313,-0.322 0.339,-0.302 0.351,-0.276C0.332,-0.197 0.277,-0.111 0.215,-0.111Z" style="fill:rgb(212,31,38);fill-rule:nonzero;"/>
                </g>
                <g transform="matrix(38.1407,0,0,38.1407,318.094,53.9065)">
                    <path d="M0.421,0.013C0.454,0.013 0.487,0.006 0.515,-0.013L0.53,-0.131C0.508,-0.118 0.485,-0.111 0.469,-0.111C0.451,-0.111 0.444,-0.119 0.444,-0.14C0.444,-0.157 0.449,-0.186 0.456,-0.223C0.466,-0.275 0.474,-0.319 0.474,-0.352C0.474,-0.419 0.437,-0.45 0.379,-0.45C0.318,-0.45 0.25,-0.415 0.195,-0.305L0.194,-0.305C0.199,-0.33 0.204,-0.358 0.208,-0.387L0.215,-0.437L0.087,-0.437L0.029,-0L0.155,-0C0.167,-0.074 0.197,-0.159 0.23,-0.215C0.263,-0.271 0.296,-0.301 0.319,-0.301C0.33,-0.301 0.337,-0.294 0.337,-0.279C0.337,-0.268 0.333,-0.248 0.328,-0.223C0.318,-0.174 0.312,-0.131 0.312,-0.099C0.312,-0.034 0.337,0.013 0.421,0.013Z" style="fill:rgb(212,31,38);fill-rule:nonzero;"/>
                </g>
                <g transform="matrix(38.1407,0,0,38.1407,338.995,53.9065)">
                    <path d="M0.251,0.013C0.31,0.013 0.376,-0.001 0.435,-0.039L0.452,-0.172C0.366,-0.121 0.307,-0.108 0.262,-0.108C0.208,-0.108 0.172,-0.128 0.172,-0.189C0.172,-0.263 0.222,-0.331 0.271,-0.331C0.293,-0.331 0.302,-0.32 0.302,-0.294C0.302,-0.282 0.3,-0.269 0.297,-0.256L0.426,-0.256C0.433,-0.275 0.434,-0.296 0.434,-0.31C0.434,-0.392 0.383,-0.451 0.286,-0.451C0.147,-0.451 0.036,-0.331 0.036,-0.184C0.036,-0.061 0.117,0.013 0.251,0.013Z" style="fill:rgb(212,31,38);fill-rule:nonzero;"/>
                </g>
                <g transform="matrix(38.1407,0,0,38.1407,357.265,53.9065)">
                    <path d="M0.253,-0.107C0.215,-0.107 0.182,-0.116 0.174,-0.15C0.349,-0.159 0.424,-0.222 0.424,-0.314C0.424,-0.391 0.37,-0.45 0.275,-0.45C0.141,-0.45 0.037,-0.333 0.037,-0.19C0.037,-0.062 0.12,0.013 0.246,0.013C0.302,0.013 0.377,-0.002 0.432,-0.041L0.45,-0.177C0.385,-0.132 0.315,-0.107 0.253,-0.107ZM0.261,-0.34C0.286,-0.34 0.3,-0.323 0.3,-0.302C0.3,-0.26 0.245,-0.238 0.172,-0.233C0.175,-0.288 0.217,-0.34 0.261,-0.34Z" style="fill:rgb(212,31,38);fill-rule:nonzero;"/>
                </g>
            </g>
        </g>
    </g>
</svg>
