<?xml version="1.0" standalone="yes"?>
<svg xmlns="http://www.w3.org/2000/svg" width="559" height="219">
<path style="fill:#000000; stroke:none;" d="M0 0L0 153L0 192C0 195.886 -1.54034 204.059 1.02778 207.258C2.81201 209.481 7.41973 209.588 10 210.294C18.274 212.557 26.716 213.857 35 216C33.8137 217.186 33.4721 217.584 33 219L303 219C304.765 212.705 312.238 208.34 316 203C320.82 207.82 325.419 213.069 331 217C330.852 209.846 326.642 199.833 328.693 193C330.718 186.254 340.129 179.871 345 175C345.866 185.972 347.909 196.983 348 208C360.483 209.681 372.471 214.977 385 216C383.814 217.186 383.472 217.584 383 219L559 219L559 0L344 0L280 0C271.808 0 259.72 -2.24281 252 0.603394C243.484 3.7433 239.362 14.2917 231 18C228.255 12.3805 219.773 2.61098 213.675 0.510025C209.366 -0.974869 203.508 0 199 0L170 0L0 0z"/>
<path style="fill:#0d0304; stroke:none;" d="M215 0C218.521 7.05469 226.384 11.5852 231 18C238.785 15.8813 246.495 6.39497 251 0L215 0z"/>
<path style="fill:#ffffff; stroke:none;" d="M40 40L40 59L59 59L59 40L40 40M60 40L60 59L79 59L79 40L60 40M80 40L80 59L99 59L99 40L80 40M180 40L180 59L199 59L199 40L180 40M200 40L200 59L219 59L219 40L200 40M220 40L220 59L239 59L239 40L220 40M340 40L340 59L359 59L359 40L340 40M360 40L360 59L379 59L379 40L360 40M480 40L480 59L499 59L499 40L480 40M500 40L500 59L519 59L519 40L500 40M40 60L40 79L59 79L59 60L40 60M100 60L100 79L119 79L119 60L100 60M160 60L160 79L179 79L179 60L160 60M240 60L240 79L259 79L259 60L240 60M320 60L320 79L339 79L339 60L320 60M380 60L380 79L399 79L399 60L380 60M460 60L460 79L479 79L479 60L460 60M40 80L40 99L59 99L59 80L40 80M100 80L100 99L119 99L119 80L100 80M140 80L140 99L159 99L159 80L140 80M260 80L260 99L279 99L279 80L260 80M300 80L300 99L319 99L319 80L300 80M400 80L400 99L419 99L419 80L400 80M440 80L440 99L459 99L459 80L440 80M40 100L40 119L59 119L59 100L40 100M60 100L60 119L79 119L79 100L60 100M80 100L80 119L99 119L99 100L80 100M140 100L140 119L159 119L159 100L140 100M260 100L260 119L279 119L279 100L260 100M300 100L300 119L319 119L319 100L300 100M400 100L400 119L419 119L419 100L400 100M440 100L440 119L459 119L459 100L440 100M480 100L480 119L499 119L499 100L480 100M500 100L500 119L519 119L519 100L500 100M40 120L40 139L59 139L59 120L40 120M140 120L140 139L159 139L159 120L140 120M260 120L260 139L279 139L279 120L260 120M300 120L300 139L319 139L319 120L300 120M400 120L400 139L419 139L419 120L400 120M440 120L440 139L459 139L459 120L440 120M500 120L500 139L519 139L519 120L500 120M40 140L40 159L59 159L59 140L40 140M160 140L160 159L179 159L179 140L160 140M240 140L240 159L259 159L259 140L240 140M300 140L300 159L319 159L319 140L300 140M400 140L400 159L419 159L419 140L400 140M460 140L460 159L479 159L479 140L460 140M500 140L500 159L519 159L519 140L500 140M40 160L40 179L59 179L59 160L40 160M180 160L180 179L199 179L199 160L180 160M200 160L200 179L219 179L219 160L200 160M220 160L220 179L239 179L239 160L220 160M300 160L300 179L319 179L319 160L300 160M400 160L400 179L419 179L419 160L400 160M480 160L480 179L499 179L499 160L480 160M500 160L500 179L519 179L519 160L500 160z"/>
<path style="fill:#150e04; stroke:none;" d="M344 175C339.248 179.752 330.851 185.513 328.618 192C326.224 198.954 330.687 209.7 331 217L317 203C311.323 206.999 305.999 212.323 302 218C308.868 220.03 316.869 219 324 219L364 219C370.532 219 380.131 220.972 385 216C372.498 214.316 360.626 209.031 348 208C347.98 200.646 346.9 193.308 346.169 186C345.779 182.102 345.871 178.519 344 175M0 208L0 219L23 219C27.6614 219 31.5868 219.485 35 216C23.9834 212.271 11.4552 210.158 0 208z"/>
</svg>
